<mxfile host="app.diagrams.net" agent="Mozilla/5.0 (Windows NT 10.0; Win64; x64) AppleWebKit/537.36 (KHTML, like Gecko) Chrome/139.0.0.0 Safari/537.36 Edg/139.0.0.0" version="28.1.1">
  <diagram name="Page-1" id="wdPM7xpAJp8fhNwitKer">
    <mxGraphModel dx="695" dy="778" grid="1" gridSize="10" guides="1" tooltips="1" connect="1" arrows="1" fold="1" page="1" pageScale="1" pageWidth="850" pageHeight="1100" math="0" shadow="0">
      <root>
        <mxCell id="0" />
        <mxCell id="1" parent="0" />
        <mxCell id="kHeReuDsFgZBYS0C8h7j-1" value="Postgres" style="whiteSpace=wrap;strokeWidth=2;" vertex="1" parent="1">
          <mxGeometry x="740" y="666" width="313" height="124" as="geometry" />
        </mxCell>
        <mxCell id="kHeReuDsFgZBYS0C8h7j-2" value="GET /quiz payload" style="whiteSpace=wrap;strokeWidth=2;" vertex="1" parent="1">
          <mxGeometry x="380" y="555" width="310" height="259" as="geometry" />
        </mxCell>
        <mxCell id="kHeReuDsFgZBYS0C8h7j-3" value="Frontend Quiz UI &amp; Flow" style="whiteSpace=wrap;strokeWidth=2;" vertex="1" parent="1">
          <mxGeometry x="380" y="32" width="673" height="503" as="geometry" />
        </mxCell>
        <mxCell id="kHeReuDsFgZBYS0C8h7j-4" value="Feature Flags (REMOTE_CONFIG)" style="whiteSpace=wrap;strokeWidth=2;" vertex="1" parent="1">
          <mxGeometry x="20" y="20" width="310" height="780" as="geometry" />
        </mxCell>
        <mxCell id="kHeReuDsFgZBYS0C8h7j-5" value="quiz_adaptive_enabled (bool)" style="whiteSpace=wrap;strokeWidth=2;" vertex="1" parent="1">
          <mxGeometry x="45" y="440" width="260" height="78" as="geometry" />
        </mxCell>
        <mxCell id="kHeReuDsFgZBYS0C8h7j-6" value="intent_conf_threshold (float, default 0.6)" style="whiteSpace=wrap;strokeWidth=2;" vertex="1" parent="1">
          <mxGeometry x="45" y="183" width="260" height="78" as="geometry" />
        </mxCell>
        <mxCell id="kHeReuDsFgZBYS0C8h7j-7" value="midcheck_sample_rate (float 0-1)" style="whiteSpace=wrap;strokeWidth=2;" vertex="1" parent="1">
          <mxGeometry x="45" y="55" width="260" height="78" as="geometry" />
        </mxCell>
        <mxCell id="kHeReuDsFgZBYS0C8h7j-8" value="baby_wording_enabled (bool)" style="whiteSpace=wrap;strokeWidth=2;" vertex="1" parent="1">
          <mxGeometry x="45" y="568" width="260" height="78" as="geometry" />
        </mxCell>
        <mxCell id="kHeReuDsFgZBYS0C8h7j-9" value="quiz_copy_variant (string)" style="whiteSpace=wrap;strokeWidth=2;" vertex="1" parent="1">
          <mxGeometry x="51" y="336" width="247" height="54" as="geometry" />
        </mxCell>
        <mxCell id="kHeReuDsFgZBYS0C8h7j-10" value="version (int)" style="whiteSpace=wrap;strokeWidth=2;" vertex="1" parent="1">
          <mxGeometry x="101" y="711" width="147" height="54" as="geometry" />
        </mxCell>
        <mxCell id="kHeReuDsFgZBYS0C8h7j-11" value="State Machine Flow" style="whiteSpace=wrap;strokeWidth=2;" vertex="1" parent="1">
          <mxGeometry x="435" y="352" width="199" height="54" as="geometry" />
        </mxCell>
        <mxCell id="kHeReuDsFgZBYS0C8h7j-12" value="Intent Inference (Q1- Q2)" style="whiteSpace=wrap;strokeWidth=2;" vertex="1" parent="1">
          <mxGeometry x="414" y="195" width="242" height="54" as="geometry" />
        </mxCell>
        <mxCell id="kHeReuDsFgZBYS0C8h7j-13" value="MidCheck Trigger" style="whiteSpace=wrap;strokeWidth=2;" vertex="1" parent="1">
          <mxGeometry x="444" y="67" width="182" height="54" as="geometry" />
        </mxCell>
        <mxCell id="kHeReuDsFgZBYS0C8h7j-14" value="Outro Copy (CTA wording)" style="whiteSpace=wrap;strokeWidth=2;" vertex="1" parent="1">
          <mxGeometry x="774" y="363" width="245" height="54" as="geometry" />
        </mxCell>
        <mxCell id="kHeReuDsFgZBYS0C8h7j-15" value="GET /quiz returns { questions, copy, flags_subset, quiz_version }" style="whiteSpace=wrap;strokeWidth=2;" vertex="1" parent="1">
          <mxGeometry x="405" y="677" width="260" height="102" as="geometry" />
        </mxCell>
        <mxCell id="kHeReuDsFgZBYS0C8h7j-16" value="QUIZ_SESSIONS.quiz_version" style="whiteSpace=wrap;strokeWidth=2;" vertex="1" parent="1">
          <mxGeometry x="765" y="701" width="263" height="54" as="geometry" />
        </mxCell>
        <mxCell id="kHeReuDsFgZBYS0C8h7j-17" value="" style="curved=1;startArrow=none;endArrow=block;exitX=0.73;exitY=0;entryX=0;entryY=0.5;rounded=0;" edge="1" parent="1" source="kHeReuDsFgZBYS0C8h7j-5" target="kHeReuDsFgZBYS0C8h7j-11">
          <mxGeometry relative="1" as="geometry">
            <Array as="points">
              <mxPoint x="330" y="379" />
            </Array>
          </mxGeometry>
        </mxCell>
        <mxCell id="kHeReuDsFgZBYS0C8h7j-18" value="" style="curved=1;startArrow=none;endArrow=block;exitX=1;exitY=0.5;entryX=0;entryY=0.5;rounded=0;" edge="1" parent="1" source="kHeReuDsFgZBYS0C8h7j-6" target="kHeReuDsFgZBYS0C8h7j-12">
          <mxGeometry relative="1" as="geometry">
            <Array as="points" />
          </mxGeometry>
        </mxCell>
        <mxCell id="kHeReuDsFgZBYS0C8h7j-19" value="" style="curved=1;startArrow=none;endArrow=block;exitX=1;exitY=0.5;entryX=0;entryY=0.5;rounded=0;" edge="1" parent="1" source="kHeReuDsFgZBYS0C8h7j-7" target="kHeReuDsFgZBYS0C8h7j-13">
          <mxGeometry relative="1" as="geometry">
            <Array as="points" />
          </mxGeometry>
        </mxCell>
        <mxCell id="kHeReuDsFgZBYS0C8h7j-20" value="" style="curved=1;startArrow=none;endArrow=block;exitX=0.69;exitY=0;entryX=0.32;entryY=1;rounded=0;" edge="1" parent="1" source="kHeReuDsFgZBYS0C8h7j-8" target="kHeReuDsFgZBYS0C8h7j-14">
          <mxGeometry relative="1" as="geometry">
            <Array as="points">
              <mxPoint x="330" y="484" />
              <mxPoint x="740" y="484" />
            </Array>
          </mxGeometry>
        </mxCell>
        <mxCell id="kHeReuDsFgZBYS0C8h7j-21" value="" style="curved=1;startArrow=none;endArrow=block;exitX=0.72;exitY=1;entryX=0.16;entryY=1;rounded=0;" edge="1" parent="1" source="kHeReuDsFgZBYS0C8h7j-9" target="kHeReuDsFgZBYS0C8h7j-14">
          <mxGeometry relative="1" as="geometry">
            <Array as="points">
              <mxPoint x="330" y="441" />
              <mxPoint x="740" y="441" />
            </Array>
          </mxGeometry>
        </mxCell>
        <mxCell id="kHeReuDsFgZBYS0C8h7j-22" value="" style="curved=1;startArrow=none;endArrow=block;exitX=1;exitY=0.5;entryX=0;entryY=0.58;rounded=0;" edge="1" parent="1" source="kHeReuDsFgZBYS0C8h7j-10" target="kHeReuDsFgZBYS0C8h7j-15">
          <mxGeometry relative="1" as="geometry">
            <Array as="points">
              <mxPoint x="380" y="738" />
            </Array>
          </mxGeometry>
        </mxCell>
        <mxCell id="kHeReuDsFgZBYS0C8h7j-23" value="" style="curved=1;startArrow=none;endArrow=block;exitX=1;exitY=0.5;entryX=0;entryY=0.5;rounded=0;" edge="1" parent="1" source="kHeReuDsFgZBYS0C8h7j-15" target="kHeReuDsFgZBYS0C8h7j-16">
          <mxGeometry relative="1" as="geometry">
            <Array as="points" />
          </mxGeometry>
        </mxCell>
        <mxCell id="kHeReuDsFgZBYS0C8h7j-24" value="" style="curved=1;startArrow=none;endArrow=block;rounded=0;" edge="1" parent="1" source="kHeReuDsFgZBYS0C8h7j-4" target="kHeReuDsFgZBYS0C8h7j-15">
          <mxGeometry relative="1" as="geometry">
            <Array as="points" />
          </mxGeometry>
        </mxCell>
        <mxCell id="kHeReuDsFgZBYS0C8h7j-25" value="" style="curved=1;startArrow=none;endArrow=block;rounded=0;" edge="1" parent="1" source="kHeReuDsFgZBYS0C8h7j-11" target="kHeReuDsFgZBYS0C8h7j-3">
          <mxGeometry relative="1" as="geometry">
            <Array as="points" />
          </mxGeometry>
        </mxCell>
        <mxCell id="kHeReuDsFgZBYS0C8h7j-26" value="" style="curved=1;startArrow=none;endArrow=block;rounded=0;" edge="1" parent="1" source="kHeReuDsFgZBYS0C8h7j-12" target="kHeReuDsFgZBYS0C8h7j-3">
          <mxGeometry relative="1" as="geometry">
            <Array as="points" />
          </mxGeometry>
        </mxCell>
        <mxCell id="kHeReuDsFgZBYS0C8h7j-27" value="" style="curved=1;startArrow=none;endArrow=block;rounded=0;" edge="1" parent="1" source="kHeReuDsFgZBYS0C8h7j-13" target="kHeReuDsFgZBYS0C8h7j-3">
          <mxGeometry relative="1" as="geometry">
            <Array as="points" />
          </mxGeometry>
        </mxCell>
        <mxCell id="kHeReuDsFgZBYS0C8h7j-28" value="" style="curved=1;startArrow=none;endArrow=block;rounded=0;" edge="1" parent="1" source="kHeReuDsFgZBYS0C8h7j-14" target="kHeReuDsFgZBYS0C8h7j-3">
          <mxGeometry relative="1" as="geometry">
            <Array as="points" />
          </mxGeometry>
        </mxCell>
      </root>
    </mxGraphModel>
  </diagram>
</mxfile>
